<?xml version="1.0" encoding="UTF-8" standalone="no"?>
<!-- Created with Inkscape (http://www.inkscape.org/) -->

<svg
   width="54.09819mm"
   height="52.721161mm"
   viewBox="0 0 54.09819 52.721161"
   version="1.1"
   id="svg5"
   xml:space="preserve"
   inkscape:version="1.2.2 (732a01da63, 2022-12-09)"
   sodipodi:docname="pat.svg"
   inkscape:export-filename="pat.png"
   inkscape:export-xdpi="98.283134"
   inkscape:export-ydpi="98.283134"
   xmlns:inkscape="http://www.inkscape.org/namespaces/inkscape"
   xmlns:sodipodi="http://sodipodi.sourceforge.net/DTD/sodipodi-0.dtd"
   xmlns="http://www.w3.org/2000/svg"
   xmlns:svg="http://www.w3.org/2000/svg"><sodipodi:namedview
     id="namedview7"
     pagecolor="#ffffff"
     bordercolor="#000000"
     borderopacity="0.25"
     inkscape:showpageshadow="2"
     inkscape:pageopacity="0.0"
     inkscape:pagecheckerboard="0"
     inkscape:deskcolor="#d1d1d1"
     inkscape:document-units="mm"
     showgrid="false"
     inkscape:zoom="0.50646226"
     inkscape:cx="-350.47034"
     inkscape:cy="459.06678"
     inkscape:window-width="1920"
     inkscape:window-height="991"
     inkscape:window-x="-9"
     inkscape:window-y="-9"
     inkscape:window-maximized="1"
     inkscape:current-layer="layer1" /><defs
     id="defs2" /><g
     inkscape:label="Capa 1"
     inkscape:groupmode="layer"
     id="layer1"
     transform="translate(-53.755525,-78.259214)"><path
       style="fill:#ffd8a1;fill-opacity:1;stroke:none;stroke-width:1.49252;stroke-linecap:round;stroke-linejoin:round;stroke-dasharray:none;stroke-opacity:1"
       d="m 265.56767,491.44055 c -12.41384,-1.95286 -21.79241,-8.19437 -26.37186,-17.54899 -2.93029,-5.98582 -5.07083,-10.18343 -5.34079,-18.57449 -0.25525,-7.93388 0.68465,-13.23561 2.66083,-24.31811 1.11309,-6.24227 2.1645,-5.69491 1.5245,-6.33492 -0.39975,-0.39974 -1.95904,-1.13618 -4.37007,-1.93818 -7.06059,-2.34861 -13.41498,-6.27798 -16.41399,-9.27699 -3.04906,-3.04906 -6.45985,-7.7368 -8.24518,-13.971 -0.99809,-3.48526 -1.8084,-7.75191 -1.7993,-15.81156 0.009,-8.17689 0.64294,-10.08818 1.83299,-15.10502 0.73098,-3.08156 2.11395,-8.22771 2.9849,-10.11727 4.3623,-9.46413 13.97484,-12.8004 26.04576,-8.55781 3.2237,1.13304 3.83307,1.76902 5.00401,0.9128 0.82382,-0.60238 0.41286,-0.53396 0.47537,-11.10644 0.0667,-11.27508 0.22582,-12.64731 1.58113,-16.68546 2.24109,-6.67732 4.11914,-10.51058 6.9524,-13.19016 6.30025,-5.95851 20.17689,-9.59943 28.22652,-7.53135 7.07969,1.81889 15.56597,7.45632 20.89988,14.91785 1.48386,2.07576 1.95146,3.51949 2.39655,3.66076 1.52934,0.48539 2.04167,-0.26939 6.37358,-5.4409 8.10043,-9.67045 10.07046,-11.36599 16.5501,-13.54113 5.06004,-1.6986 15.57183,-2.75692 20.06962,-1.59834 8.80494,2.26806 16.71464,11.66661 19.62433,23.10968 0.86692,3.40937 1.09145,5.90144 1.19795,13.2962 0.11814,8.20324 -0.12766,7.59652 0.69806,8.20714 0.50437,0.37299 1.4706,0.55877 2.15008,0.41342 6.61899,-1.41593 9.13176,-1.33053 12.91882,-1.08103 8.02172,0.52851 13.84016,3.41765 17.21463,10.33848 2.98539,6.12286 3.57951,9.06245 3.5366,17.49849 -0.0466,9.17342 -2.14323,18.55619 -3.918,22.30774 -2.71429,5.73754 -10.16297,12.09036 -18.27385,15.54786 -5.2423,2.23469 -4.27632,1.57812 -1.0134,7.24521 2.75298,4.78142 6.50665,13.29358 7.40205,16.9055 1.64084,6.61899 1.04461,16.28189 -1.77479,25.08348 -1.83419,5.72596 -3.57672,8.88591 -8.56206,13.62873 -6.42337,6.11092 -14.43224,10.89519 -21.54454,12.67878 -6.9654,1.74674 -22.68993,1.64053 -35.40737,-1.16599 -5.0528,-1.11507 -4.5898,-1.46837 -19.00438,1.81382 -20.95333,4.77105 -30.55065,6.23067 -36.28108,5.3292 z m 22.11068,-18.70915 c 21.26052,-5.73416 20.52926,-5.61884 27.41089,-5.62592 3.80215,-0.004 9.93713,0.44558 15.05541,1.10306 19.44515,2.49784 28.35816,1.36492 34.0637,-5.04655 7.89755,-8.87469 8.05584,-27.87999 0.56878,-38.94059 -3.93613,-5.81484 -11.08917,-13.60596 -19.87874,-21.31238 -4.23576,-3.7138 -6.47885,-6.54691 -11.73513,-15.69134 -6.42225,-11.17291 -7.71145,-13.42392 -13.74161,-16.43181 -9.36311,-4.67039 -16.61331,-3.94688 -23.37799,3.2901 -2.83086,3.0285 -5.80498,7.7151 -12.63096,19.19475 -4.60183,7.73917 -6.49888,10.2427 -10.02762,13.90862 -11.21542,11.65144 -19.01873,23.59283 -20.83281,32.1568 -2.85196,13.46362 2.05255,26.50837 12.42418,31.61431 4.50538,2.21799 7.05555,3.28247 12.59765,3.30904 3.97483,0.019 5.73194,-0.34884 10.10425,-1.52809 z m -41.14743,-64.16645 c 6.55134,-1.06296 9.18816,-3.07635 11.81253,-8.67335 1.10344,-2.35329 1.42418,-2.70769 1.42418,-6.4763 0,-5.15086 0.11191,-4.45153 -5.10647,-10.43853 -4.09149,-4.69412 -4.95371,-6.10059 -5.90337,-10.65521 -1.78386,-8.55546 -4.80848,-10.45033 -16.54839,-10.65538 -4.97015,-0.0868 -4.19181,0.0772 -6.27225,1.5368 -2.48691,1.74469 -3.95681,3.94938 -4.87265,7.83976 -0.7739,3.28744 -0.60953,12.33834 0.0973,16.81934 1.18931,7.53991 3.78658,13.45209 7.96527,17.20692 3.99943,3.59374 10.01269,4.69516 17.40387,3.49595 z m 130.94083,-8.29979 c 3.81016,-0.80758 5.17072,-1.70371 7.99229,-4.79095 4.21191,-4.60851 6.28909,-9.60269 7.28752,-18.1909 1.43943,-12.38148 -0.66776,-20.30181 -6.20459,-23.17337 -2.04672,-1.06149 -1.87767,-0.72544 -6.88075,-0.48862 -11.24574,0.53309 -13.22481,2.09903 -15.12106,11.23955 -0.76729,3.69858 -2.12385,5.74123 -6.54723,10.63127 -1.64322,1.81656 -3.57414,3.99237 -3.98929,4.98597 -1.11452,2.66743 -0.98076,7.21315 0.2763,10.57294 1.23271,3.29471 3.86165,6.77635 6.28264,7.81733 4.61953,1.98631 11.61623,2.51725 16.90417,1.39643 z m -98.83352,-27.93744 c 0,-0.2069 4.94657,-1.78129 6.98276,-3.14682 10.77827,-7.22828 13.21907,-19.21594 8.55723,-37.59347 -2.02991,-8.00216 -4.5335,-11.23124 -11.01293,-14.38977 -16.67119,-8.12668 -25.23847,-0.0653 -27.3493,22.31805 -1.07652,11.4156 0.82112,21.40204 5.22613,27.36015 2.40077,3.2472 8.38655,6.49461 12.53651,6.53001 1.14814,0.01 5.0596,-0.13082 5.0596,-1.07814 z m 62.71254,-4.34971 c 4.74512,-1.3805 9.46236,-4.08964 11.33536,-8.26326 5.30799,-11.82777 4.85628,-32.32602 -1.07482,-41.93676 -5.32538,-8.62921 -10.40976,-10.45003 -21.65803,-5.13811 -8.13367,3.84108 -11.17273,8.5401 -13.22832,22.20914 -1.34594,8.95008 -0.3811,14.93417 2.3652,20.7826 1.89295,4.03118 6.1358,8.54233 10.38423,10.56177 5.94328,2.82508 7.43482,3.07681 11.87638,1.78462 z"
       id="path44160"
       sodipodi:nodetypes="sssssssscssssssssssssssssssssssssssssssssssssssssssssssssssssssssssssssssssscssssscscssssssssss"
       transform="scale(0.26458333)" /><path
       style="fill:none;fill-opacity:1;stroke:#000000;stroke-width:1.379;stroke-linecap:round;stroke-linejoin:round;stroke-dasharray:none;stroke-opacity:1"
       d="m 83.557316,128.04951 c 0,0 6.806338,1.73882 10.952844,0.64646 3.227313,-0.8502 6.27985,-3.60168 7.20336,-5.17164 0.9235,-1.56997 2.21641,-6.27985 1.1082,-9.41978 -1.1082,-3.13993 -2.40111,-4.98694 -2.40111,-4.98694 0,0 5.72574,-1.75467 6.3722,-6.3722 0.64645,-4.61754 0.64646,-7.295711 -1.38526,-10.343285 -2.03172,-3.047574 -7.849818,-1.29291 -7.849818,-1.29291 0,0 1.228963,-8.444618 -4.340482,-11.451492 -1.940767,-1.047796 -4.61754,-0.597959 -4.61754,-0.597959 0,0 -3.32463,-0.0485 -5.54105,2.537323 -2.21641,2.585821 -2.49347,2.955224 -2.49347,2.955224 0,0 -3.1773,-5.545117 -8.21922,-5.171641 -4.986936,0.369403 -6.695425,3.232276 -6.695425,3.232276 0,0 -1.546874,2.79361 -1.616139,5.356342 -0.07004,2.591463 0.09235,4.432838 0.09235,4.432838 0,0 -6.926305,-3.139927 -8.865672,3.601677 -1.939364,6.741607 0.184703,10.712687 0.184703,10.712687 0,0 0.738807,2.40112 2.770521,3.69403 2.031717,1.29291 4.617537,1.93936 4.617537,1.93936 0,0 -1.388091,6.08608 -0.831155,9.5583 0.295905,1.84483 0.852385,3.63637 2.292748,5.21386 1.328601,1.45508 3.0335,2.82383 7.404081,3.16883 4.854971,-0.37716 10.911857,-2.28227 11.857797,-2.24136 z"
       id="path17814"
       sodipodi:nodetypes="cssscsscscscscscscscsscc" /><path
       style="fill:none;fill-opacity:1;stroke:#060202;stroke-width:0.779;stroke-linecap:round;stroke-linejoin:round;stroke-dasharray:none;stroke-opacity:0.997881"
       d="m 72.55034,98.640066 c 0,0 6.41399,-0.807669 5.68126,-7.805208 -0.38866,-3.711707 -1.07748,-5.297611 -2.54269,-6.277139 -1.46521,-0.979527 -3.30182,-1.34685 -3.922191,-1.297874 -2.481469,0.195904 -3.526298,3.036535 -3.852807,5.485353 -0.437016,3.277616 0.112255,7.045456 1.482815,8.416016 0.71832,0.71832 2.076134,1.446202 3.153613,1.478852 z"
       id="path17973"
       sodipodi:nodetypes="csssssc" /><path
       style="fill:none;fill-opacity:1;stroke:#060202;stroke-width:0.777;stroke-linecap:round;stroke-linejoin:round;stroke-dasharray:none;stroke-opacity:1"
       d="m 89.463732,97.509856 c 0,0 -6.358935,-0.807777 -5.632501,-7.806239 0.385337,-3.712196 1.068233,-5.298309 2.520864,-6.277966 1.45264,-0.979656 3.273487,-1.347027 3.888529,-1.298045 2.460168,0.195929 3.496025,3.036935 3.819734,5.486075 0.433268,3.278049 -0.111287,7.046386 -1.470083,8.417126 -0.712156,0.718415 -2.058319,1.446393 -3.126543,1.479049 z"
       id="path17973-6"
       sodipodi:nodetypes="csssssc" /><path
       style="fill:none;fill-opacity:1;stroke:#000000;stroke-width:0.7;stroke-linecap:round;stroke-linejoin:round;stroke-dasharray:none;stroke-opacity:0.989407"
       d="m 67.174332,107.40912 c 0,0 0.865788,-0.75035 1.269823,-1.8701 0.404035,-1.11975 0.346316,-2.60891 -0.39249,-3.34772 -2.233659,-2.233674 -2.166961,-2.927214 -2.166961,-2.927214 0,0 -0.180433,-1.785312 -0.843831,-2.492107 -0.617595,-0.657999 -1.539473,-0.947123 -3.915514,-1.045227 -3.974402,-0.164099 -2.493472,7.388058 -2.493472,7.388058 0,0 0.752559,4.02821 3.370803,4.75607 2.030022,0.56434 3.832556,0.23083 5.171642,-0.46176 z"
       id="path29454"
       sodipodi:nodetypes="csscsscsc" /><path
       style="fill:none;fill-opacity:1;stroke:#000000;stroke-width:0.7;stroke-linecap:round;stroke-linejoin:round;stroke-dasharray:none;stroke-opacity:0.989407"
       d="m 95.11509,105.25906 c 0,0 -0.86579,-0.75035 -1.26982,-1.8701 -0.40404,-1.11975 -0.34632,-2.6089 0.39249,-3.34771 2.23366,-2.233677 2.16696,-2.927215 2.16696,-2.927215 0,0 0.18043,-1.785317 0.84383,-2.492112 0.61759,-0.657999 1.53947,-0.947123 3.91551,-1.045227 3.9744,-0.164099 2.49347,7.388064 2.49347,7.388064 0,0 -0.75255,4.0282 -3.3708,4.75606 -2.03002,0.56434 -3.83255,0.23083 -5.17164,-0.46176 z"
       id="path29454-5"
       sodipodi:nodetypes="csscsscsc" /><path
       style="fill:none;fill-opacity:1;stroke:#000000;stroke-width:0.8;stroke-linecap:round;stroke-linejoin:round;stroke-dasharray:none;stroke-opacity:1"
       d="m 96.26482,122.32377 c 1.61615,-1.70849 2.26259,-6.83396 0.0923,-10.06624 -2.30877,-3.23227 -5.8181,-6.00279 -5.8181,-6.00279 -1.93512,-1.9606 -2.87743,-4.93708 -4.70988,-7.018664 0,0 -4.5333,-4.182171 -8.12687,0.831164 -1.21801,1.69923 -4.06344,6.64925 -4.06344,6.64925 0,0 -6.090275,5.72069 -6.7416,10.06623 -0.548242,3.65779 1.292911,5.91045 1.292911,5.91045 0,0 2.314857,3.89398 8.126859,2.12407 5.17069,-1.57461 5.92709,-1.44401 5.92709,-1.44401 4.33948,-0.467 11.10918,2.33073 14.02073,-1.04946 z"
       id="path32344"
       class="pat-center"
       sodipodi:nodetypes="ccccscscscc" /></g></svg>
